<svg width="48" height="48" viewBox="0 0 48 48" fill="none" xmlns="http://www.w3.org/2000/svg">
<path fill-rule="evenodd" clip-rule="evenodd" d="M24.5 3C12.6015 3 3 12.6022 3 24.5016C3 33.8953 9.05303 42.0367 17.6115 44.7498C18.8647 44.9592 19.2815 44.333 19.2815 43.7068V40.1581C13.2285 41.4105 11.9753 37.2356 11.9753 37.2356C10.9323 34.7299 9.68006 34.1037 9.68006 34.1037C7.80074 32.8513 9.88848 32.8514 9.88848 32.8514C11.9753 33.0598 13.2285 35.1477 13.2285 35.1477C15.1069 38.4879 18.2377 37.444 19.4908 37.0262C19.6993 35.5645 20.3254 34.7299 20.9515 34.1037C15.9424 33.2682 10.9323 31.3896 10.9323 23.2492C10.9323 20.9529 11.7669 19.0743 13.2285 17.4033C12.8108 16.9864 12.1846 14.8985 13.2285 11.976C13.2285 11.976 15.1069 11.3498 19.0731 14.2723C20.7431 13.8546 22.6216 13.6461 24.5 13.6461C26.3784 13.6461 28.0484 13.8546 29.9269 14.2723C34.1024 11.5582 35.7715 11.976 35.7715 11.976C37.0247 14.8985 36.1892 17.1948 35.9808 17.6126C37.4415 19.0743 38.277 20.9529 38.277 23.4576C38.277 31.599 33.2669 33.4775 28.4662 34.1037C29.3007 34.7299 29.9269 35.9823 29.9269 38.0702V43.9152C29.9269 44.5414 30.3446 45.1676 31.3885 44.9592C39.947 42.0367 46 34.1037 46 24.71C46 12.6022 36.3985 3 24.5 3Z" fill="black"/>
</svg>
