<svg width="48" height="48" viewBox="0 0 48 48" fill="none" xmlns="http://www.w3.org/2000/svg">
<g clip-path="url(#clip0_1915_129682)">
<path d="M45.1193 12.9739V36.2746L24.8105 48V24.6993L45.1193 12.9739Z" fill="#0078D4"/>
<path d="M23.9292 0.0273438L3.75 11.6777L3.77388 11.6913L24.0588 23.4031L27.6034 21.3562L44.2106 11.7698L44.2141 11.7664L44.238 11.7527L23.9292 0.0273438Z" fill="#0078D4"/>
<path d="M23.3088 24.6993V47.9999L3 36.2746V12.9773L23.3088 24.6993Z" fill="#0078D4"/>
<path d="M45.1184 12.9741V12.9775L24.8096 24.6995L45.1184 12.9741Z" fill="#0078D4"/>
<path d="M44.2108 11.7664L27.6035 21.3561L44.2108 11.7664Z" fill="#0078D4"/>
<path d="M23.9398 0.00682302L23.9262 0L3.72656 11.6606L3.75045 11.6742L3.77433 11.6879L23.9262 0.054584L44.2111 11.7663L44.235 11.7527L44.2589 11.739L23.9398 0.00682302Z" fill="#0078D4"/>
<path d="M39.0025 23.4775V39.7573L24.8105 47.9484V31.6721L39.0025 23.4775Z" fill="#50E6FF"/>
<path d="M38.155 22.2326L24.0587 30.3724L9.87012 22.178L23.9666 14.0415L38.155 22.2326Z" fill="#50E6FF"/>
<path d="M23.3087 31.6723V47.9486L9.12012 39.7575V23.4812L23.3087 31.6723Z" fill="#50E6FF"/>
<path d="M39.0015 23.4778V23.4812L24.8096 31.6723L39.0015 23.4778Z" fill="#6B6B6B"/>
<path d="M38.155 22.2324L24.0586 30.3723L38.155 22.2324Z" fill="#6B6B6B"/>
<path d="M24.2169 4.75244L18.0762 8.29703L18.083 8.30042L22.2075 8.31067V10.8863H26.3014V8.31747L30.3884 8.32432H30.3918L30.3986 8.32088L24.2169 4.75244Z" fill="#50E6FF"/>
</g>
<defs>
<clipPath id="clip0_1915_129682">
<rect width="48" height="48" fill="white"/>
</clipPath>
</defs>
</svg>
