<svg width="48" height="48" viewBox="0 0 48 48" fill="none" xmlns="http://www.w3.org/2000/svg">
<path d="M43.9227 19.847C44.6034 17.8825 44.7446 15.7714 44.3314 13.7338C43.9182 11.6962 42.9658 9.8068 41.5735 8.26273C40.1812 6.71865 38.4001 5.57647 36.416 4.95534C34.4319 4.33421 32.3174 4.2569 30.2932 4.73145C28.9386 3.13554 27.178 1.93525 25.1975 1.25747C23.217 0.579685 21.0901 0.449577 19.0417 0.88091C16.9934 1.31224 15.0996 2.28899 13.5606 3.70789C12.0216 5.1268 10.8945 6.93515 10.2985 8.94181C8.27765 9.35405 6.40292 10.2967 4.86676 11.6729C3.33061 13.0491 2.18838 14.8093 1.55734 16.7729C0.926292 18.7364 0.829167 20.8326 1.27594 22.846C1.7227 24.8595 2.69727 26.7179 4.09958 28.2302C3.40692 30.2073 3.26138 32.3348 3.67837 34.3877C4.09536 36.4407 5.05937 38.3428 6.46847 39.893C7.87756 41.4431 9.67936 42.5837 11.6834 43.1941C13.6873 43.8044 15.819 43.8619 17.853 43.3604C19.2143 44.9304 20.9715 46.1066 22.9418 46.7667C24.9121 47.4267 27.0234 47.5464 29.0556 47.1133C31.0879 46.6802 32.9669 45.7101 34.4969 44.3041C36.0269 42.8981 37.1519 41.1076 37.7548 39.1191C39.7676 38.6987 41.6329 37.7517 43.1602 36.3748C44.6874 34.998 45.822 33.2405 46.4482 31.2819C47.0743 29.3232 47.1695 27.2335 46.7241 25.226C46.2787 23.2186 45.3086 21.3652 43.9129 19.8552L43.9227 19.847ZM32.0567 7.42635C32.3499 7.39683 32.6445 7.38213 32.9392 7.3823C37.6699 7.3823 41.5035 11.3186 41.5035 16.0477C41.5041 16.6112 41.4494 17.1735 41.3403 17.7263C39.4676 16.5844 31.2165 11.7542 31.2165 11.7542L18.9117 18.8584V13.927L29.0796 8.28278C29.0813 8.28817 29.084 8.29315 29.0877 8.29746C30.016 7.82849 31.0222 7.53327 32.0567 7.42635ZM29.1464 26.935L24.0291 29.8892L18.9101 26.935V21.0232L24.0291 18.0689L29.1464 21.0232V26.935ZM13.5268 8.74769C14.2237 7.23627 15.3395 5.95647 16.7419 5.06012C18.1442 4.16377 19.7742 3.6885 21.4386 3.69069C23.5772 3.68751 25.6389 4.4881 27.215 5.93371C27.2277 5.94372 27.2397 5.95462 27.2509 5.96633C24.7599 7.32031 17.0341 11.6432 17.0341 11.6432V25.8518L12.7634 23.3853L12.8009 11.64C12.8713 10.6408 13.1171 9.66174 13.5268 8.74769ZM4.06532 20.3299C4.06564 18.5514 4.61939 16.8172 5.64977 15.3676C6.68015 13.9181 8.13608 12.8251 9.81562 12.2403L9.88414 12.2191C9.84172 14.3398 9.84662 23.8681 9.84662 23.8681L22.1531 30.9741L17.8807 33.4406L7.8597 27.4684L7.86949 27.4521C7.00323 26.8706 6.24984 26.1366 5.64604 25.2857C4.6157 23.8388 4.06306 22.1062 4.06532 20.3299ZM16.0684 40.5807C14.868 40.722 13.6513 40.6073 12.4984 40.2443C11.3455 39.8812 10.2827 39.278 9.3798 38.4744C8.47695 37.6708 7.7546 36.6851 7.26034 35.5821C6.76608 34.4791 6.51112 33.2839 6.51226 32.0752C6.51178 31.4859 6.57246 30.8982 6.69333 30.3215C6.70312 30.271 6.71617 30.222 6.72759 30.1731C8.02284 30.9887 16.8416 36.2089 16.8416 36.2089L29.1464 29.1046V34.036L18.9916 39.6901C18.0791 40.1613 17.0886 40.463 16.0684 40.5807ZM34.4237 39.3116C33.8651 40.5322 33.0273 41.6043 31.9779 42.4414C30.9286 43.2785 29.6971 43.8571 28.3829 44.1305C27.0687 44.4039 25.7087 44.3644 24.4125 44.0153C23.1164 43.6662 21.9205 43.0172 20.9215 42.1207C20.879 42.0832 20.8399 42.044 20.7991 42.0065C22.1319 41.3132 31.0224 36.3165 31.0224 36.3165V22.108L35.2931 24.5745L35.1855 36.2904C35.1195 37.3358 34.8613 38.36 34.4237 39.3116ZM38.2605 35.801L38.205 35.819C38.2442 33.8484 38.205 24.0916 38.205 24.0916L25.9002 16.9874L30.1709 14.5208L40.3404 20.5224C41.1824 21.1491 41.915 21.9109 42.5084 22.7768C43.4871 24.1699 43.9455 25.8991 43.9455 27.731C43.9457 29.4982 43.3995 31.2222 42.3818 32.6669C41.364 34.1116 39.9245 35.2063 38.2605 35.801Z" fill="#1A1A1F"/>
</svg>
