<svg width="48" height="48" viewBox="0 0 48 48" fill="none" xmlns="http://www.w3.org/2000/svg">
<path d="M45.4667 2.85156H2.53333C1.6865 2.85156 1 3.53476 1 4.37752V31.8448C1 32.6876 1.6865 33.3708 2.53333 33.3708H45.4667C46.3135 33.3708 47 32.6876 47 31.8448V4.37752C47 3.53476 46.3135 2.85156 45.4667 2.85156Z" fill="url(#paint0_linear_1915_129664)"/>
<path d="M31.6667 13.6641V22.5401L24 27.0162V18.1148L31.6667 13.6641Z" fill="#50E6FF"/>
<path d="M31.6681 13.6597L24.0014 18.1359L16.3347 13.6597L24.0014 9.20898L31.6681 13.6597Z" fill="#C3F1FF"/>
<path d="M24.0014 18.1402V27.0162L16.3347 22.5401V13.6641L24.0014 18.1402Z" fill="#9CEBFF"/>
<path d="M16.3347 22.5366L24.0014 18.1113V27.0128L16.3347 22.5366Z" fill="#C3F1FF"/>
<path d="M31.6667 22.5366L24 18.1113V27.0128L31.6667 22.5366Z" fill="#9CEBFF"/>
<path d="M33.2256 42.6032C28.6767 41.891 28.4978 38.6357 28.4978 33.3711H19.4767C19.4767 38.6357 19.3234 41.891 14.7745 42.6032C14.1465 42.6723 13.5666 42.9705 13.1466 43.4402C12.7265 43.9098 12.4962 44.5177 12.5 45.1464H35.5C35.5039 44.5177 35.2736 43.9098 34.8535 43.4402C34.4335 42.9705 33.8535 42.6723 33.2256 42.6032Z" fill="url(#paint1_linear_1915_129664)"/>
<defs>
<linearGradient id="paint0_linear_1915_129664" x1="24" y1="33.3708" x2="24" y2="2.85156" gradientUnits="userSpaceOnUse">
<stop stop-color="#0078D4"/>
<stop offset="0.82" stop-color="#5EA0EF"/>
</linearGradient>
<linearGradient id="paint1_linear_1915_129664" x1="24" y1="45.1464" x2="24" y2="33.3711" gradientUnits="userSpaceOnUse">
<stop offset="0.15" stop-color="#CCCCCC"/>
<stop offset="1" stop-color="#707070"/>
</linearGradient>
</defs>
</svg>
